<svg width="16" height="17" viewBox="0 0 16 17" fill="none" xmlns="http://www.w3.org/2000/svg">
<path d="M2.84075 12.853C4.41456 11.9634 6.19218 11.4973 8 11.5C9.875 11.5 11.6352 11.9913 13.1592 12.853M10.25 7C10.25 7.59674 10.0129 8.16903 9.59099 8.59099C9.16903 9.01295 8.59674 9.25 8 9.25C7.40326 9.25 6.83097 9.01295 6.40901 8.59099C5.98705 8.16903 5.75 7.59674 5.75 7C5.75 6.40326 5.98705 5.83097 6.40901 5.40901C6.83097 4.98705 7.40326 4.75 8 4.75C8.59674 4.75 9.16903 4.98705 9.59099 5.40901C10.0129 5.83097 10.25 6.40326 10.25 7ZM14.75 8.5C14.75 9.38642 14.5754 10.2642 14.2362 11.0831C13.897 11.9021 13.3998 12.6462 12.773 13.273C12.1462 13.8998 11.4021 14.397 10.5831 14.7362C9.76417 15.0754 8.88642 15.25 8 15.25C7.11358 15.25 6.23583 15.0754 5.41689 14.7362C4.59794 14.397 3.85382 13.8998 3.22703 13.273C2.60023 12.6462 2.10303 11.9021 1.76381 11.0831C1.42459 10.2642 1.25 9.38642 1.25 8.5C1.25 6.70979 1.96116 4.9929 3.22703 3.72703C4.4929 2.46116 6.20979 1.75 8 1.75C9.79021 1.75 11.5071 2.46116 12.773 3.72703C14.0388 4.9929 14.75 6.70979 14.75 8.5Z" stroke="black" stroke-width="2" stroke-linecap="round" stroke-linejoin="round"/>
</svg>
